<svg id="Layer_1" data-name="Layer 1" xmlns="http://www.w3.org/2000/svg" viewBox="0 0 555.33 409.21"><defs><style>.cls-1{fill:#1a1a1a;}</style></defs><path class="cls-1" d="M1243.33,710.12,1139.68,529.48a39.18,39.18,0,0,1,.07-39.12L1243.34,311.3a9,9,0,0,1,12.33-3.29h0A39.18,39.18,0,0,1,1270,361.53l-83.29,144a9,9,0,0,0,0,9L1270.12,660a39.17,39.17,0,0,1-14.48,53.48h0A9,9,0,0,1,1243.33,710.12Z" transform="translate(-1134.48 -306.79)"/><path class="cls-1" d="M1581,711.47l103.64-180.64a39.17,39.17,0,0,0-.07-39.11L1581,312.65a9,9,0,0,0-12.32-3.29h0a39.18,39.18,0,0,0-14.3,53.53l83.29,144a9,9,0,0,1,0,9l-83.46,145.47a39.18,39.18,0,0,0,14.48,53.48h0A9,9,0,0,0,1581,711.47Z" transform="translate(-1134.48 -306.79)"/><path class="cls-1" d="M1357.19,659.59a89.51,89.51,0,0,1-38-39.09q-13.11-25.68-13.1-62v-84.3q0-36.35,13.1-62a90,90,0,0,1,38-39.19q24.93-13.53,60-13.53,28.95,0,51.77,12.47t37.71,36.23a130,130,0,0,1,8.67,16.4,29.16,29.16,0,0,1-26.65,41h-.49a29.21,29.21,0,0,1-26.55-17.17,65.15,65.15,0,0,0-4.84-8.82,50.1,50.1,0,0,0-17.12-16.48,44.75,44.75,0,0,0-22.5-5.71q-16.26,0-27.67,6.66a43,43,0,0,0-17.43,19.44q-6,12.78-6,30.74v84.3q0,18,6,30.63a43.11,43.11,0,0,0,17.43,19.34q11.4,6.64,27.67,6.65a46.34,46.34,0,0,0,22.82-5.6,47.93,47.93,0,0,0,17.11-16.37,63.79,63.79,0,0,0,4.69-8.71,29.22,29.22,0,0,1,26.69-17.49h0a29.16,29.16,0,0,1,26.63,41,131.78,131.78,0,0,1-8.67,16.34q-14.89,23.78-37.61,36.24T1417.19,673Q1382.12,673,1357.19,659.59Z" transform="translate(-1134.48 -306.79)"/></svg>